<?xml version="1.0" encoding="UTF-8" standalone="no"?>
<!DOCTYPE svg PUBLIC "-//W3C//DTD SVG 1.1//EN"
 "http://www.w3.org/Graphics/SVG/1.1/DTD/svg11.dtd">
<!-- Generated by graphviz version 2.43.0 (0)
 -->
<!-- Title: %3 Pages: 1 -->
<svg width="584pt" height="404pt"
 viewBox="0.00 0.00 584.30 404.00" xmlns="http://www.w3.org/2000/svg" xmlns:xlink="http://www.w3.org/1999/xlink">
<g id="graph0" class="graph" transform="scale(1 1) rotate(0) translate(4 400)">
<title>%3</title>
<polygon fill="white" stroke="transparent" points="-4,4 -4,-400 580.3,-400 580.3,4 -4,4"/>
<!-- frs -->
<g id="node1" class="node">
<title>frs</title>
<ellipse fill="none" stroke="black" cx="158" cy="-234" rx="27" ry="18"/>
<text text-anchor="middle" x="158" y="-230.3" font-family="Times,serif" font-size="14.00">frs</text>
</g>
<!-- qnr -->
<g id="node2" class="node">
<title>qnr</title>
<ellipse fill="none" stroke="black" cx="213" cy="-162" rx="27" ry="18"/>
<text text-anchor="middle" x="213" y="-158.3" font-family="Times,serif" font-size="14.00">qnr</text>
</g>
<!-- frs&#45;&#45;qnr -->
<g id="edge1" class="edge">
<title>frs&#45;&#45;qnr</title>
<g id="a_edge1"><a xlink:title="frs/qnr">
<path fill="none" stroke="black" d="M169.93,-217.81C179.16,-206.07 191.87,-189.89 201.09,-178.16"/>
</a>
</g>
</g>
<!-- lhk -->
<g id="node3" class="node">
<title>lhk</title>
<ellipse fill="none" stroke="black" cx="186" cy="-18" rx="27" ry="18"/>
<text text-anchor="middle" x="186" y="-14.3" font-family="Times,serif" font-size="14.00">lhk</text>
</g>
<!-- frs&#45;&#45;lhk -->
<g id="edge2" class="edge">
<title>frs&#45;&#45;lhk</title>
<g id="a_edge2"><a xlink:title="frs/lhk">
<path fill="none" stroke="black" d="M159.76,-215.57C162.82,-185.99 169.51,-124.1 177,-72 178.73,-59.99 181.02,-46.51 182.86,-36.15"/>
</a>
</g>
</g>
<!-- lsr -->
<g id="node4" class="node">
<title>lsr</title>
<ellipse fill="none" stroke="black" cx="27" cy="-162" rx="27" ry="18"/>
<text text-anchor="middle" x="27" y="-158.3" font-family="Times,serif" font-size="14.00">lsr</text>
</g>
<!-- frs&#45;&#45;lsr -->
<g id="edge3" class="edge">
<title>frs&#45;&#45;lsr</title>
<g id="a_edge3"><a xlink:title="frs/lsr">
<path fill="none" stroke="black" d="M137.53,-222.06C112.92,-208.91 71.87,-186.98 47.33,-173.86"/>
</a>
</g>
</g>
<!-- nvd -->
<g id="node14" class="node">
<title>nvd</title>
<ellipse fill="none" stroke="black" cx="214" cy="-90" rx="27.9" ry="18"/>
<text text-anchor="middle" x="214" y="-86.3" font-family="Times,serif" font-size="14.00">nvd</text>
</g>
<!-- qnr&#45;&#45;nvd -->
<g id="edge18" class="edge">
<title>qnr&#45;&#45;nvd</title>
<g id="a_edge18"><a xlink:title="qnr/nvd">
<path fill="none" stroke="black" d="M213.25,-143.7C213.4,-132.85 213.6,-118.92 213.76,-108.1"/>
</a>
</g>
</g>
<!-- lsr&#45;&#45;lhk -->
<g id="edge4" class="edge">
<title>lsr&#45;&#45;lhk</title>
<g id="a_edge4"><a xlink:title="lsr/lhk">
<path fill="none" stroke="black" d="M30.91,-144.16C36.25,-124.54 47.57,-92.23 68,-72 94.01,-46.24 134.73,-31.8 160.89,-24.7"/>
</a>
</g>
</g>
<!-- rzs -->
<g id="node5" class="node">
<title>rzs</title>
<ellipse fill="none" stroke="black" cx="186" cy="-378" rx="27" ry="18"/>
<text text-anchor="middle" x="186" y="-374.3" font-family="Times,serif" font-size="14.00">rzs</text>
</g>
<!-- rzs&#45;&#45;qnr -->
<g id="edge5" class="edge">
<title>rzs&#45;&#45;qnr</title>
<g id="a_edge5"><a xlink:title="rzs/qnr">
<path fill="none" stroke="black" d="M188.16,-359.85C193.22,-319.78 205.76,-220.38 210.83,-180.23"/>
</a>
</g>
</g>
<!-- rzs&#45;&#45;lsr -->
<g id="edge7" class="edge">
<title>rzs&#45;&#45;lsr</title>
<g id="a_edge7"><a xlink:title="rzs/lsr">
<path fill="none" stroke="black" d="M162.85,-368.13C141.4,-359.16 109.39,-343.81 86,-324 55.28,-297.97 44.76,-289.85 31,-252 22.33,-228.16 23.13,-198.34 24.82,-179.98"/>
</a>
</g>
</g>
<!-- cmg -->
<g id="node6" class="node">
<title>cmg</title>
<ellipse fill="none" stroke="black" cx="272" cy="-234" rx="30.59" ry="18"/>
<text text-anchor="middle" x="272" y="-230.3" font-family="Times,serif" font-size="14.00">cmg</text>
</g>
<!-- rzs&#45;&#45;cmg -->
<g id="edge6" class="edge">
<title>rzs&#45;&#45;cmg</title>
<g id="a_edge6"><a xlink:title="rzs/cmg">
<path fill="none" stroke="black" d="M199.01,-361.8C207.51,-351.5 218.55,-337.38 227,-324 242.25,-299.85 256.54,-269.86 264.77,-251.59"/>
</a>
</g>
</g>
<!-- rsh -->
<g id="node7" class="node">
<title>rsh</title>
<ellipse fill="none" stroke="black" cx="122" cy="-306" rx="27" ry="18"/>
<text text-anchor="middle" x="122" y="-302.3" font-family="Times,serif" font-size="14.00">rsh</text>
</g>
<!-- rzs&#45;&#45;rsh -->
<g id="edge8" class="edge">
<title>rzs&#45;&#45;rsh</title>
<g id="a_edge8"><a xlink:title="rzs/rsh">
<path fill="none" stroke="black" d="M172.43,-362.15C161.57,-350.28 146.41,-333.7 135.55,-321.82"/>
</a>
</g>
</g>
<!-- cmg&#45;&#45;qnr -->
<g id="edge24" class="edge">
<title>cmg&#45;&#45;qnr</title>
<g id="a_edge24"><a xlink:title="cmg/qnr">
<path fill="none" stroke="black" d="M258.91,-217.46C248.99,-205.7 235.46,-189.64 225.65,-178.01"/>
</a>
</g>
</g>
<!-- cmg&#45;&#45;lhk -->
<g id="edge26" class="edge">
<title>cmg&#45;&#45;lhk</title>
<g id="a_edge26"><a xlink:title="cmg/lhk">
<path fill="none" stroke="black" d="M274.21,-215.92C277.35,-184.7 279.87,-117.45 251,-72 239.76,-54.3 220.6,-39.74 205.98,-30.39"/>
</a>
</g>
</g>
<!-- bvb -->
<g id="node11" class="node">
<title>bvb</title>
<ellipse fill="none" stroke="black" cx="438" cy="-162" rx="27.9" ry="18"/>
<text text-anchor="middle" x="438" y="-158.3" font-family="Times,serif" font-size="14.00">bvb</text>
</g>
<!-- cmg&#45;&#45;bvb -->
<g id="edge27" class="edge">
<title>cmg&#45;&#45;bvb</title>
<g id="a_edge27"><a xlink:title="cmg/bvb">
<path fill="none" stroke="black" d="M296.14,-222.82C328.06,-209.36 383.91,-185.81 415.17,-172.63"/>
</a>
</g>
</g>
<!-- cmg&#45;&#45;nvd -->
<g id="edge25" class="edge">
<title>cmg&#45;&#45;nvd</title>
<g id="a_edge25"><a xlink:title="cmg/nvd">
<path fill="none" stroke="black" d="M269.34,-216.04C266.08,-197.72 259.63,-167.92 249,-144 243,-130.5 233.69,-116.61 226.18,-106.44"/>
</a>
</g>
</g>
<!-- rsh&#45;&#45;frs -->
<g id="edge28" class="edge">
<title>rsh&#45;&#45;frs</title>
<g id="a_edge28"><a xlink:title="rsh/frs">
<path fill="none" stroke="black" d="M130.35,-288.76C136.17,-277.46 143.89,-262.44 149.7,-251.15"/>
</a>
</g>
</g>
<!-- rsh&#45;&#45;lsr -->
<g id="edge30" class="edge">
<title>rsh&#45;&#45;lsr</title>
<g id="a_edge30"><a xlink:title="rsh/lsr">
<path fill="none" stroke="black" d="M100.91,-294.64C84.62,-285.57 62.78,-270.9 50,-252 35.16,-230.05 29.9,-199.15 28.03,-180.13"/>
</a>
</g>
</g>
<!-- pzl -->
<g id="node13" class="node">
<title>pzl</title>
<ellipse fill="none" stroke="black" cx="86" cy="-234" rx="27" ry="18"/>
<text text-anchor="middle" x="86" y="-230.3" font-family="Times,serif" font-size="14.00">pzl</text>
</g>
<!-- rsh&#45;&#45;pzl -->
<g id="edge29" class="edge">
<title>rsh&#45;&#45;pzl</title>
<g id="a_edge29"><a xlink:title="rsh/pzl">
<path fill="none" stroke="black" d="M113.65,-288.76C107.83,-277.46 100.11,-262.44 94.3,-251.15"/>
</a>
</g>
</g>
<!-- ntq -->
<g id="node8" class="node">
<title>ntq</title>
<ellipse fill="none" stroke="black" cx="424" cy="-378" rx="27" ry="18"/>
<text text-anchor="middle" x="424" y="-374.3" font-family="Times,serif" font-size="14.00">ntq</text>
</g>
<!-- jqt -->
<g id="node9" class="node">
<title>jqt</title>
<ellipse fill="none" stroke="black" cx="457" cy="-306" rx="27" ry="18"/>
<text text-anchor="middle" x="457" y="-302.3" font-family="Times,serif" font-size="14.00">jqt</text>
</g>
<!-- ntq&#45;&#45;jqt -->
<g id="edge9" class="edge">
<title>ntq&#45;&#45;jqt</title>
<g id="a_edge9"><a xlink:title="ntq/jqt">
<path fill="none" stroke="black" d="M431.82,-360.41C437.08,-349.25 443.99,-334.6 449.24,-323.47"/>
</a>
</g>
</g>
<!-- hfx -->
<g id="node10" class="node">
<title>hfx</title>
<ellipse fill="none" stroke="black" cx="438" cy="-18" rx="27" ry="18"/>
<text text-anchor="middle" x="438" y="-14.3" font-family="Times,serif" font-size="14.00">hfx</text>
</g>
<!-- ntq&#45;&#45;hfx -->
<g id="edge10" class="edge">
<title>ntq&#45;&#45;hfx</title>
<g id="a_edge10"><a xlink:title="ntq/hfx">
<path fill="none" stroke="black" d="M409.33,-362.76C386.23,-338.74 344,-287.63 344,-235 344,-235 344,-235 344,-161 344,-105.71 394.16,-55.43 421.19,-32.34"/>
</a>
</g>
</g>
<!-- ntq&#45;&#45;bvb -->
<g id="edge11" class="edge">
<title>ntq&#45;&#45;bvb</title>
<g id="a_edge11"><a xlink:title="ntq/bvb">
<path fill="none" stroke="black" d="M422.78,-359.82C422.11,-349.46 421.34,-335.98 421,-324 420.55,-308.01 419.92,-303.96 421,-288 423.63,-249.1 430.82,-203.87 434.96,-179.91"/>
</a>
</g>
</g>
<!-- xhk -->
<g id="node12" class="node">
<title>xhk</title>
<ellipse fill="none" stroke="black" cx="549" cy="-90" rx="27.1" ry="18"/>
<text text-anchor="middle" x="549" y="-86.3" font-family="Times,serif" font-size="14.00">xhk</text>
</g>
<!-- ntq&#45;&#45;xhk -->
<g id="edge12" class="edge">
<title>ntq&#45;&#45;xhk</title>
<g id="a_edge12"><a xlink:title="ntq/xhk">
<path fill="none" stroke="black" d="M442.88,-364.94C457.55,-355.02 477.86,-340.04 493,-324 519.57,-295.85 525.94,-287.22 542,-252 562.22,-207.65 566.41,-192.44 561,-144 559.64,-131.81 556.56,-118.33 553.87,-108.02"/>
</a>
</g>
</g>
<!-- jqt&#45;&#45;xhk -->
<g id="edge32" class="edge">
<title>jqt&#45;&#45;xhk</title>
<g id="a_edge32"><a xlink:title="jqt/xhk">
<path fill="none" stroke="black" d="M477.05,-293.76C491.63,-284.49 510.58,-269.97 521,-252 548.05,-205.37 550.37,-139.27 549.77,-108.29"/>
</a>
</g>
</g>
<!-- jqt&#45;&#45;nvd -->
<g id="edge33" class="edge">
<title>jqt&#45;&#45;nvd</title>
<g id="a_edge33"><a xlink:title="jqt/nvd">
<path fill="none" stroke="black" d="M441.43,-291.29C397.64,-252.73 273.77,-143.63 229.76,-104.87"/>
</a>
</g>
</g>
<!-- rhn -->
<g id="node15" class="node">
<title>rhn</title>
<ellipse fill="none" stroke="black" cx="485" cy="-234" rx="27" ry="18"/>
<text text-anchor="middle" x="485" y="-230.3" font-family="Times,serif" font-size="14.00">rhn</text>
</g>
<!-- jqt&#45;&#45;rhn -->
<g id="edge31" class="edge">
<title>jqt&#45;&#45;rhn</title>
<g id="a_edge31"><a xlink:title="jqt/rhn">
<path fill="none" stroke="black" d="M463.64,-288.41C468.1,-277.25 473.96,-262.6 478.41,-251.47"/>
</a>
</g>
</g>
<!-- bvb&#45;&#45;hfx -->
<g id="edge17" class="edge">
<title>bvb&#45;&#45;hfx</title>
<g id="a_edge17"><a xlink:title="bvb/hfx">
<path fill="none" stroke="black" d="M438,-143.87C438,-116.58 438,-63.52 438,-36.19"/>
</a>
</g>
</g>
<!-- bvb&#45;&#45;xhk -->
<g id="edge16" class="edge">
<title>bvb&#45;&#45;xhk</title>
<g id="a_edge16"><a xlink:title="bvb/xhk">
<path fill="none" stroke="black" d="M457.33,-148.81C477.71,-135.96 509.6,-115.85 529.89,-103.05"/>
</a>
</g>
</g>
<!-- xhk&#45;&#45;hfx -->
<g id="edge22" class="edge">
<title>xhk&#45;&#45;hfx</title>
<g id="a_edge22"><a xlink:title="xhk/hfx">
<path fill="none" stroke="black" d="M529.92,-76.97C509.59,-64.15 477.58,-43.96 457.2,-31.11"/>
</a>
</g>
</g>
<!-- pzl&#45;&#45;lsr -->
<g id="edge13" class="edge">
<title>pzl&#45;&#45;lsr</title>
<g id="a_edge13"><a xlink:title="pzl/lsr">
<path fill="none" stroke="black" d="M73.2,-217.81C63.3,-206.07 49.67,-189.89 39.78,-178.16"/>
</a>
</g>
</g>
<!-- pzl&#45;&#45;hfx -->
<g id="edge14" class="edge">
<title>pzl&#45;&#45;hfx</title>
<g id="a_edge14"><a xlink:title="pzl/hfx">
<path fill="none" stroke="black" d="M90.14,-216.18C99.38,-182.56 125.07,-107.26 177,-72 215.25,-46.03 353.04,-28.29 411.49,-21.77"/>
</a>
</g>
</g>
<!-- pzl&#45;&#45;nvd -->
<g id="edge15" class="edge">
<title>pzl&#45;&#45;nvd</title>
<g id="a_edge15"><a xlink:title="pzl/nvd">
<path fill="none" stroke="black" d="M99.46,-218.07C123.98,-190.87 175.67,-133.52 200.34,-106.16"/>
</a>
</g>
</g>
<!-- nvd&#45;&#45;lhk -->
<g id="edge23" class="edge">
<title>nvd&#45;&#45;lhk</title>
<g id="a_edge23"><a xlink:title="nvd/lhk">
<path fill="none" stroke="black" d="M207.36,-72.41C202.9,-61.25 197.04,-46.6 192.59,-35.47"/>
</a>
</g>
</g>
<!-- rhn&#45;&#45;hfx -->
<g id="edge21" class="edge">
<title>rhn&#45;&#45;hfx</title>
<g id="a_edge21"><a xlink:title="rhn/hfx">
<path fill="none" stroke="black" d="M483.97,-215.8C482.68,-197.77 480,-168.69 475,-144 467,-104.52 452.24,-59.51 443.98,-35.75"/>
</a>
</g>
</g>
<!-- rhn&#45;&#45;bvb -->
<g id="edge20" class="edge">
<title>rhn&#45;&#45;bvb</title>
<g id="a_edge20"><a xlink:title="rhn/bvb">
<path fill="none" stroke="black" d="M474.33,-217.12C466.64,-205.66 456.3,-190.26 448.62,-178.82"/>
</a>
</g>
</g>
<!-- rhn&#45;&#45;xhk -->
<g id="edge19" class="edge">
<title>rhn&#45;&#45;xhk</title>
<g id="a_edge19"><a xlink:title="rhn/xhk">
<path fill="none" stroke="black" d="M492.47,-216.43C504.8,-189.07 529.28,-134.75 541.58,-107.46"/>
</a>
</g>
</g>
</g>
</svg>
