<?xml version="1.0" encoding="UTF-8" standalone="no"?>
<!DOCTYPE svg PUBLIC "-//W3C//DTD SVG 1.1//EN"
 "http://www.w3.org/Graphics/SVG/1.1/DTD/svg11.dtd">
<!-- Generated by graphviz version 2.43.0 (0)
 -->
<!-- Title: %3 Pages: 1 -->
<svg width="1689pt" height="305pt"
 viewBox="0.00 0.00 1689.17 305.00" xmlns="http://www.w3.org/2000/svg" xmlns:xlink="http://www.w3.org/1999/xlink">
<g id="graph0" class="graph" transform="scale(1 1) rotate(0) translate(4 301)">
<title>%3</title>
<polygon fill="white" stroke="transparent" points="-4,4 -4,-301 1685.17,-301 1685.17,4 -4,4"/>
<!-- bfw -->
<g id="node1" class="node">
<title>bfw</title>
<ellipse fill="none" stroke="black" cx="210.17" cy="-105" rx="27.9" ry="18"/>
<text text-anchor="middle" x="210.17" y="-101.3" font-family="Times,serif" font-size="14.00">bfw</text>
</g>
<!-- z00 -->
<g id="node2" class="node">
<title>z00</title>
<ellipse fill="none" stroke="black" cx="48.17" cy="-18" rx="27.1" ry="18"/>
<text text-anchor="middle" x="48.17" y="-14.3" font-family="Times,serif" font-size="14.00">z00</text>
</g>
<!-- bfw&#45;&gt;z00 -->
<g id="edge1" class="edge">
<title>bfw&#45;&gt;z00</title>
<path fill="none" stroke="black" d="M185.43,-96.28C154.71,-86.65 105.88,-71.17 102.17,-69 89.65,-61.66 77.6,-50.98 68.08,-41.38"/>
<polygon fill="black" stroke="black" points="70.46,-38.81 61.02,-33.99 65.4,-43.64 70.46,-38.81"/>
<text text-anchor="middle" x="125.17" y="-57.8" font-family="Times,serif" font-size="14.00"> &#160;XOR </text>
</g>
<!-- z06 -->
<g id="node3" class="node">
<title>z06</title>
<ellipse fill="none" stroke="black" cx="252.17" cy="-18" rx="27.1" ry="18"/>
<text text-anchor="middle" x="252.17" y="-14.3" font-family="Times,serif" font-size="14.00">z06</text>
</g>
<!-- bfw&#45;&gt;z06 -->
<g id="edge2" class="edge">
<title>bfw&#45;&gt;z06</title>
<path fill="none" stroke="black" d="M207.15,-87C206.16,-76.94 206.34,-64.2 211.17,-54 214.19,-47.63 218.97,-41.99 224.22,-37.19"/>
<polygon fill="black" stroke="black" points="226.56,-39.8 232.11,-30.77 222.14,-34.37 226.56,-39.8"/>
<text text-anchor="middle" x="229.17" y="-57.8" font-family="Times,serif" font-size="14.00"> &#160;OR </text>
</g>
<!-- z10 -->
<g id="node4" class="node">
<title>z10</title>
<ellipse fill="none" stroke="black" cx="153.17" cy="-18" rx="27.1" ry="18"/>
<text text-anchor="middle" x="153.17" y="-14.3" font-family="Times,serif" font-size="14.00">z10</text>
</g>
<!-- bfw&#45;&gt;z10 -->
<g id="edge3" class="edge">
<title>bfw&#45;&gt;z10</title>
<path fill="none" stroke="black" d="M187.16,-94.65C176.17,-88.94 163.96,-80.49 157.17,-69 153.21,-62.3 151.53,-54.18 151.02,-46.46"/>
<polygon fill="black" stroke="black" points="154.52,-46.3 150.94,-36.33 147.52,-46.36 154.52,-46.3"/>
<text text-anchor="middle" x="180.67" y="-57.8" font-family="Times,serif" font-size="14.00"> &#160;AND </text>
</g>
<!-- bqk -->
<g id="node5" class="node">
<title>bqk</title>
<ellipse fill="none" stroke="black" cx="670.17" cy="-105" rx="27.9" ry="18"/>
<text text-anchor="middle" x="670.17" y="-101.3" font-family="Times,serif" font-size="14.00">bqk</text>
</g>
<!-- bqk&#45;&gt;z06 -->
<g id="edge5" class="edge">
<title>bqk&#45;&gt;z06</title>
<path fill="none" stroke="black" d="M643.05,-99.65C620.39,-96.07 587.21,-90.96 558.17,-87 492.08,-77.99 473.4,-87.01 409.17,-69 393.66,-64.65 391.3,-59.54 376.17,-54 346.82,-43.26 312.56,-33.81 287.5,-27.45"/>
<polygon fill="black" stroke="black" points="288.25,-24.03 277.7,-25 286.56,-30.82 288.25,-24.03"/>
<text text-anchor="middle" x="427.17" y="-57.8" font-family="Times,serif" font-size="14.00"> &#160;OR </text>
</g>
<!-- z03 -->
<g id="node6" class="node">
<title>z03</title>
<ellipse fill="none" stroke="black" cx="859.17" cy="-18" rx="27.1" ry="18"/>
<text text-anchor="middle" x="859.17" y="-14.3" font-family="Times,serif" font-size="14.00">z03</text>
</g>
<!-- bqk&#45;&gt;z03 -->
<g id="edge4" class="edge">
<title>bqk&#45;&gt;z03</title>
<path fill="none" stroke="black" d="M697.05,-99.85C734.23,-93.75 799.07,-81.7 819.17,-69 829.14,-62.7 837.72,-53.04 844.35,-43.88"/>
<polygon fill="black" stroke="black" points="847.39,-45.62 850.08,-35.38 841.59,-41.71 847.39,-45.62"/>
<text text-anchor="middle" x="858.67" y="-57.8" font-family="Times,serif" font-size="14.00"> &#160;AND </text>
</g>
<!-- z07 -->
<g id="node7" class="node">
<title>z07</title>
<ellipse fill="none" stroke="black" cx="536.17" cy="-18" rx="27.1" ry="18"/>
<text text-anchor="middle" x="536.17" y="-14.3" font-family="Times,serif" font-size="14.00">z07</text>
</g>
<!-- bqk&#45;&gt;z07 -->
<g id="edge6" class="edge">
<title>bqk&#45;&gt;z07</title>
<path fill="none" stroke="black" d="M684.38,-89.34C692.9,-78.75 700.59,-64.51 692.17,-54 684.69,-44.65 616.34,-31.99 572.63,-24.74"/>
<polygon fill="black" stroke="black" points="573.07,-21.26 562.63,-23.1 571.94,-28.17 573.07,-21.26"/>
<text text-anchor="middle" x="713.17" y="-57.8" font-family="Times,serif" font-size="14.00"> &#160;OR </text>
</g>
<!-- z08 -->
<g id="node8" class="node">
<title>z08</title>
<ellipse fill="none" stroke="black" cx="401.17" cy="-18" rx="27.1" ry="18"/>
<text text-anchor="middle" x="401.17" y="-14.3" font-family="Times,serif" font-size="14.00">z08</text>
</g>
<!-- bqk&#45;&gt;z08 -->
<g id="edge7" class="edge">
<title>bqk&#45;&gt;z08</title>
<path fill="none" stroke="black" d="M642.81,-101.15C611,-97.1 557.47,-87.95 515.17,-69 504.7,-64.31 504.29,-59.4 494.17,-54 475.42,-44 453.18,-35.52 435.15,-29.41"/>
<polygon fill="black" stroke="black" points="436.21,-26.07 425.62,-26.27 434.02,-32.72 436.21,-26.07"/>
<text text-anchor="middle" x="533.17" y="-57.8" font-family="Times,serif" font-size="14.00"> &#160;OR </text>
</g>
<!-- djm -->
<g id="node9" class="node">
<title>djm</title>
<ellipse fill="none" stroke="black" cx="1438.17" cy="-192" rx="28.7" ry="18"/>
<text text-anchor="middle" x="1438.17" y="-188.3" font-family="Times,serif" font-size="14.00">djm</text>
</g>
<!-- kpj -->
<g id="node10" class="node">
<title>kpj</title>
<ellipse fill="none" stroke="black" cx="1643.17" cy="-105" rx="27" ry="18"/>
<text text-anchor="middle" x="1643.17" y="-101.3" font-family="Times,serif" font-size="14.00">kpj</text>
</g>
<!-- djm&#45;&gt;kpj -->
<g id="edge8" class="edge">
<title>djm&#45;&gt;kpj</title>
<path fill="none" stroke="black" d="M1461.55,-181.57C1476.47,-175.15 1495.99,-166.04 1512.17,-156 1521.32,-150.33 1521.49,-145.68 1531.17,-141 1562.42,-125.89 1574.41,-134.47 1607.17,-123 1609.08,-122.33 1611.02,-121.59 1612.97,-120.81"/>
<polygon fill="black" stroke="black" points="1614.77,-123.84 1622.54,-116.64 1611.98,-117.43 1614.77,-123.84"/>
<text text-anchor="middle" x="1549.17" y="-144.8" font-family="Times,serif" font-size="14.00"> &#160;OR </text>
</g>
<!-- qhw -->
<g id="node11" class="node">
<title>qhw</title>
<ellipse fill="none" stroke="black" cx="1196.17" cy="-105" rx="30.59" ry="18"/>
<text text-anchor="middle" x="1196.17" y="-101.3" font-family="Times,serif" font-size="14.00">qhw</text>
</g>
<!-- djm&#45;&gt;qhw -->
<g id="edge9" class="edge">
<title>djm&#45;&gt;qhw</title>
<path fill="none" stroke="black" d="M1411.5,-184.97C1396.45,-181.63 1377.29,-177.45 1360.17,-174 1317.19,-165.33 1303.35,-173.57 1263.17,-156 1247.29,-149.05 1231.64,-137.71 1219.47,-127.57"/>
<polygon fill="black" stroke="black" points="1221.5,-124.7 1211.64,-120.82 1216.93,-130 1221.5,-124.7"/>
<text text-anchor="middle" x="1281.17" y="-144.8" font-family="Times,serif" font-size="14.00"> &#160;OR </text>
</g>
<!-- z05 -->
<g id="node27" class="node">
<title>z05</title>
<ellipse fill="none" stroke="black" cx="1624.17" cy="-18" rx="27.1" ry="18"/>
<text text-anchor="middle" x="1624.17" y="-14.3" font-family="Times,serif" font-size="14.00">z05</text>
</g>
<!-- kpj&#45;&gt;z05 -->
<g id="edge25" class="edge">
<title>kpj&#45;&gt;z05</title>
<path fill="none" stroke="black" d="M1645.25,-86.62C1645.91,-76.88 1645.86,-64.6 1643.17,-54 1642.29,-50.54 1641,-47.06 1639.49,-43.7"/>
<polygon fill="black" stroke="black" points="1642.54,-41.97 1634.84,-34.69 1636.32,-45.18 1642.54,-41.97"/>
<text text-anchor="middle" x="1663.17" y="-57.8" font-family="Times,serif" font-size="14.00"> &#160;OR </text>
</g>
<!-- z04 -->
<g id="node18" class="node">
<title>z04</title>
<ellipse fill="none" stroke="black" cx="966.17" cy="-18" rx="27.1" ry="18"/>
<text text-anchor="middle" x="966.17" y="-14.3" font-family="Times,serif" font-size="14.00">z04</text>
</g>
<!-- qhw&#45;&gt;z04 -->
<g id="edge37" class="edge">
<title>qhw&#45;&gt;z04</title>
<path fill="none" stroke="black" d="M1168.16,-97.28C1143.17,-90.97 1105.77,-80.77 1074.17,-69 1047.14,-58.93 1017.47,-44.97 996.08,-34.36"/>
<polygon fill="black" stroke="black" points="997.38,-31.1 986.87,-29.75 994.25,-37.36 997.38,-31.1"/>
<text text-anchor="middle" x="1097.17" y="-57.8" font-family="Times,serif" font-size="14.00"> &#160;XOR </text>
</g>
<!-- z09 -->
<g id="node32" class="node">
<title>z09</title>
<ellipse fill="none" stroke="black" cx="1209.17" cy="-18" rx="27.1" ry="18"/>
<text text-anchor="middle" x="1209.17" y="-14.3" font-family="Times,serif" font-size="14.00">z09</text>
</g>
<!-- qhw&#45;&gt;z09 -->
<g id="edge38" class="edge">
<title>qhw&#45;&gt;z09</title>
<path fill="none" stroke="black" d="M1192.83,-86.7C1191.53,-76.99 1190.84,-64.71 1193.17,-54 1193.85,-50.9 1194.82,-47.75 1195.96,-44.67"/>
<polygon fill="black" stroke="black" points="1199.28,-45.8 1200,-35.23 1192.85,-43.04 1199.28,-45.8"/>
<text text-anchor="middle" x="1216.17" y="-57.8" font-family="Times,serif" font-size="14.00"> &#160;XOR </text>
</g>
<!-- ffh -->
<g id="node12" class="node">
<title>ffh</title>
<ellipse fill="none" stroke="black" cx="912.17" cy="-192" rx="27" ry="18"/>
<text text-anchor="middle" x="912.17" y="-188.3" font-family="Times,serif" font-size="14.00">ffh</text>
</g>
<!-- ffh&#45;&gt;bqk -->
<g id="edge10" class="edge">
<title>ffh&#45;&gt;bqk</title>
<path fill="none" stroke="black" d="M901.42,-175.36C892.72,-163.98 879.44,-149.19 864.17,-141 860.71,-139.14 762.36,-121.94 707.06,-112.36"/>
<polygon fill="black" stroke="black" points="707.39,-108.86 696.94,-110.61 706.2,-115.76 707.39,-108.86"/>
<text text-anchor="middle" x="901.17" y="-144.8" font-family="Times,serif" font-size="14.00"> &#160;OR </text>
</g>
<!-- fgs -->
<g id="node13" class="node">
<title>fgs</title>
<ellipse fill="none" stroke="black" cx="243.17" cy="-192" rx="27" ry="18"/>
<text text-anchor="middle" x="243.17" y="-188.3" font-family="Times,serif" font-size="14.00">fgs</text>
</g>
<!-- mjb -->
<g id="node14" class="node">
<title>mjb</title>
<ellipse fill="none" stroke="black" cx="117.17" cy="-105" rx="28.7" ry="18"/>
<text text-anchor="middle" x="117.17" y="-101.3" font-family="Times,serif" font-size="14.00">mjb</text>
</g>
<!-- fgs&#45;&gt;mjb -->
<g id="edge11" class="edge">
<title>fgs&#45;&gt;mjb</title>
<path fill="none" stroke="black" d="M216.89,-187.34C183.92,-182.16 130.21,-171.55 118.17,-156 113.22,-149.6 111.74,-141.24 111.86,-133.19"/>
<polygon fill="black" stroke="black" points="115.37,-133.25 112.78,-122.98 108.4,-132.62 115.37,-133.25"/>
<text text-anchor="middle" x="141.17" y="-144.8" font-family="Times,serif" font-size="14.00"> &#160;XOR </text>
</g>
<!-- tgd -->
<g id="node15" class="node">
<title>tgd</title>
<ellipse fill="none" stroke="black" cx="1301.17" cy="-105" rx="27" ry="18"/>
<text text-anchor="middle" x="1301.17" y="-101.3" font-family="Times,serif" font-size="14.00">tgd</text>
</g>
<!-- fgs&#45;&gt;tgd -->
<g id="edge12" class="edge">
<title>fgs&#45;&gt;tgd</title>
<path fill="none" stroke="black" d="M269.21,-187.09C295.6,-183.26 337.64,-177.49 374.17,-174 438.89,-167.81 605.44,-179.2 666.17,-156 676.22,-152.16 675.07,-144.69 685.17,-141 742.7,-119.97 1175.55,-131.8 1236.17,-123 1246.45,-121.51 1257.45,-119 1267.42,-116.35"/>
<polygon fill="black" stroke="black" points="1268.66,-119.64 1277.36,-113.59 1266.79,-112.9 1268.66,-119.64"/>
<text text-anchor="middle" x="708.17" y="-144.8" font-family="Times,serif" font-size="14.00"> &#160;XOR </text>
</g>
<!-- wpb -->
<g id="node16" class="node">
<title>wpb</title>
<ellipse fill="none" stroke="black" cx="518.17" cy="-105" rx="30.59" ry="18"/>
<text text-anchor="middle" x="518.17" y="-101.3" font-family="Times,serif" font-size="14.00">wpb</text>
</g>
<!-- fgs&#45;&gt;wpb -->
<g id="edge13" class="edge">
<title>fgs&#45;&gt;wpb</title>
<path fill="none" stroke="black" d="M220.22,-181.95C198.98,-172.32 172.71,-156.38 187.17,-141 209.36,-117.4 446.64,-130.44 478.17,-123 480.68,-122.41 483.23,-121.67 485.76,-120.84"/>
<polygon fill="black" stroke="black" points="487.21,-124.04 495.36,-117.27 484.76,-117.48 487.21,-124.04"/>
<text text-anchor="middle" x="210.17" y="-144.8" font-family="Times,serif" font-size="14.00"> &#160;XOR </text>
</g>
<!-- mjb&#45;&gt;z00 -->
<g id="edge27" class="edge">
<title>mjb&#45;&gt;z00</title>
<path fill="none" stroke="black" d="M88.39,-104.11C61.48,-102.47 22.61,-95.31 3.17,-69 -5.62,-57.1 5.31,-44.73 18.6,-35.27"/>
<polygon fill="black" stroke="black" points="20.55,-38.18 27.02,-29.79 16.73,-32.31 20.55,-38.18"/>
<text text-anchor="middle" x="26.17" y="-57.8" font-family="Times,serif" font-size="14.00"> &#160;XOR </text>
</g>
<!-- z11 -->
<g id="node23" class="node">
<title>z11</title>
<ellipse fill="none" stroke="black" cx="1104.17" cy="-18" rx="27.1" ry="18"/>
<text text-anchor="middle" x="1104.17" y="-14.3" font-family="Times,serif" font-size="14.00">z11</text>
</g>
<!-- tgd&#45;&gt;z11 -->
<g id="edge43" class="edge">
<title>tgd&#45;&gt;z11</title>
<path fill="none" stroke="black" d="M1276.58,-97.13C1264.46,-93.86 1249.6,-90.01 1236.17,-87 1193.81,-77.5 1176.81,-92.28 1140.17,-69 1130.69,-62.98 1122.93,-53.48 1117.08,-44.38"/>
<polygon fill="black" stroke="black" points="1119.96,-42.38 1111.86,-35.55 1113.93,-45.94 1119.96,-42.38"/>
<text text-anchor="middle" x="1163.67" y="-57.8" font-family="Times,serif" font-size="14.00"> &#160;AND </text>
</g>
<!-- tgd&#45;&gt;z09 -->
<g id="edge42" class="edge">
<title>tgd&#45;&gt;z09</title>
<path fill="none" stroke="black" d="M1285.98,-89.96C1271.33,-76.43 1248.97,-55.77 1232.14,-40.22"/>
<polygon fill="black" stroke="black" points="1234.11,-37.27 1224.39,-33.06 1229.36,-42.41 1234.11,-37.27"/>
<text text-anchor="middle" x="1283.17" y="-57.8" font-family="Times,serif" font-size="14.00"> &#160;XOR </text>
</g>
<!-- z01 -->
<g id="node33" class="node">
<title>z01</title>
<ellipse fill="none" stroke="black" cx="1381.17" cy="-18" rx="27.1" ry="18"/>
<text text-anchor="middle" x="1381.17" y="-14.3" font-family="Times,serif" font-size="14.00">z01</text>
</g>
<!-- tgd&#45;&gt;z01 -->
<g id="edge41" class="edge">
<title>tgd&#45;&gt;z01</title>
<path fill="none" stroke="black" d="M1308.82,-87.52C1314.14,-77.16 1321.92,-63.92 1331.17,-54 1337.4,-47.31 1345.11,-41.16 1352.59,-35.94"/>
<polygon fill="black" stroke="black" points="1354.76,-38.7 1361.17,-30.26 1350.9,-32.86 1354.76,-38.7"/>
<text text-anchor="middle" x="1354.17" y="-57.8" font-family="Times,serif" font-size="14.00"> &#160;XOR </text>
</g>
<!-- z12 -->
<g id="node34" class="node">
<title>z12</title>
<ellipse fill="none" stroke="black" cx="1519.17" cy="-18" rx="27.1" ry="18"/>
<text text-anchor="middle" x="1519.17" y="-14.3" font-family="Times,serif" font-size="14.00">z12</text>
</g>
<!-- tgd&#45;&gt;z12 -->
<g id="edge44" class="edge">
<title>tgd&#45;&gt;z12</title>
<path fill="none" stroke="black" d="M1324.17,-95.08C1339.63,-88.69 1360.21,-79.4 1377.17,-69 1386.34,-63.38 1386.59,-58.9 1396.17,-54 1423.62,-39.96 1457.48,-30.85 1482.73,-25.46"/>
<polygon fill="black" stroke="black" points="1483.53,-28.87 1492.63,-23.44 1482.13,-22.01 1483.53,-28.87"/>
<text text-anchor="middle" x="1419.17" y="-57.8" font-family="Times,serif" font-size="14.00"> &#160;XOR </text>
</g>
<!-- z02 -->
<g id="node22" class="node">
<title>z02</title>
<ellipse fill="none" stroke="black" cx="689.17" cy="-18" rx="27.1" ry="18"/>
<text text-anchor="middle" x="689.17" y="-14.3" font-family="Times,serif" font-size="14.00">z02</text>
</g>
<!-- wpb&#45;&gt;z02 -->
<g id="edge50" class="edge">
<title>wpb&#45;&gt;z02</title>
<path fill="none" stroke="black" d="M532.15,-88.99C543.17,-77.94 559.43,-63.28 576.17,-54 600.32,-40.62 630.26,-31.64 653.26,-26.13"/>
<polygon fill="black" stroke="black" points="654.32,-29.48 663.29,-23.84 652.76,-22.66 654.32,-29.48"/>
<text text-anchor="middle" x="599.67" y="-57.8" font-family="Times,serif" font-size="14.00"> &#160;AND </text>
</g>
<!-- frj -->
<g id="node17" class="node">
<title>frj</title>
<ellipse fill="none" stroke="black" cx="442.17" cy="-105" rx="27" ry="18"/>
<text text-anchor="middle" x="442.17" y="-101.3" font-family="Times,serif" font-size="14.00">frj</text>
</g>
<!-- frj&#45;&gt;z10 -->
<g id="edge17" class="edge">
<title>frj&#45;&gt;z10</title>
<path fill="none" stroke="black" d="M416.29,-99.52C384.9,-93.79 330.56,-82.92 285.17,-69 267.81,-63.67 264.13,-60.5 247.17,-54 226.87,-46.21 204.01,-37.7 185.91,-31.01"/>
<polygon fill="black" stroke="black" points="186.99,-27.68 176.4,-27.5 184.57,-34.25 186.99,-27.68"/>
<text text-anchor="middle" x="308.67" y="-57.8" font-family="Times,serif" font-size="14.00"> &#160;AND </text>
</g>
<!-- frj&#45;&gt;z07 -->
<g id="edge15" class="edge">
<title>frj&#45;&gt;z07</title>
<path fill="none" stroke="black" d="M444.07,-86.96C446.03,-76.38 450.03,-63.11 458.17,-54 469.37,-41.47 485.92,-33.18 500.89,-27.83"/>
<polygon fill="black" stroke="black" points="502.01,-31.14 510.43,-24.72 499.84,-24.49 502.01,-31.14"/>
<text text-anchor="middle" x="476.17" y="-57.8" font-family="Times,serif" font-size="14.00"> &#160;OR </text>
</g>
<!-- frj&#45;&gt;z08 -->
<g id="edge16" class="edge">
<title>frj&#45;&gt;z08</title>
<path fill="none" stroke="black" d="M414.94,-102.98C390.87,-100.47 357.04,-92.62 340.17,-69 329.04,-53.42 348.28,-39.94 368.02,-30.91"/>
<polygon fill="black" stroke="black" points="369.48,-34.1 377.32,-26.97 366.75,-27.65 369.48,-34.1"/>
<text text-anchor="middle" x="358.17" y="-57.8" font-family="Times,serif" font-size="14.00"> &#160;OR </text>
</g>
<!-- frj&#45;&gt;z04 -->
<g id="edge14" class="edge">
<title>frj&#45;&gt;z04</title>
<path fill="none" stroke="black" d="M462.67,-92.95C467.63,-90.67 472.99,-88.5 478.17,-87 540.54,-68.91 563.26,-94.04 623.17,-69 633.1,-64.85 632.14,-57.89 642.17,-54 694.73,-33.64 839.47,-44.59 895.17,-36 907.19,-34.15 920.16,-31.3 931.7,-28.46"/>
<polygon fill="black" stroke="black" points="932.57,-31.85 941.4,-25.99 930.84,-25.06 932.57,-31.85"/>
<text text-anchor="middle" x="665.17" y="-57.8" font-family="Times,serif" font-size="14.00"> &#160;XOR </text>
</g>
<!-- fst -->
<g id="node19" class="node">
<title>fst</title>
<ellipse fill="none" stroke="black" cx="788.17" cy="-192" rx="27" ry="18"/>
<text text-anchor="middle" x="788.17" y="-188.3" font-family="Times,serif" font-size="14.00">fst</text>
</g>
<!-- fst&#45;&gt;frj -->
<g id="edge18" class="edge">
<title>fst&#45;&gt;frj</title>
<path fill="none" stroke="black" d="M761.64,-188.16C722.66,-183.59 647.85,-173.32 586.17,-156 568.69,-151.09 565.44,-146.61 548.17,-141 517.62,-131.08 508.39,-133.91 478.17,-123 476.32,-122.33 474.43,-121.6 472.54,-120.83"/>
<polygon fill="black" stroke="black" points="473.77,-117.55 463.21,-116.75 470.97,-123.96 473.77,-117.55"/>
<text text-anchor="middle" x="604.17" y="-144.8" font-family="Times,serif" font-size="14.00"> &#160;OR </text>
</g>
<!-- rvg -->
<g id="node20" class="node">
<title>rvg</title>
<ellipse fill="none" stroke="black" cx="1466.17" cy="-105" rx="27" ry="18"/>
<text text-anchor="middle" x="1466.17" y="-101.3" font-family="Times,serif" font-size="14.00">rvg</text>
</g>
<!-- fst&#45;&gt;rvg -->
<g id="edge19" class="edge">
<title>fst&#45;&gt;rvg</title>
<path fill="none" stroke="black" d="M813.47,-185.35C830.99,-181.62 854.9,-176.91 876.17,-174 974.25,-160.59 1001.12,-175.48 1098.17,-156 1119.26,-151.77 1123.11,-145.36 1144.17,-141 1228.53,-123.54 1251.56,-132.63 1337.17,-123 1368.54,-119.47 1404.1,-114.73 1429.93,-111.15"/>
<polygon fill="black" stroke="black" points="1430.6,-114.59 1440.02,-109.74 1429.63,-107.66 1430.6,-114.59"/>
<text text-anchor="middle" x="1167.67" y="-144.8" font-family="Times,serif" font-size="14.00"> &#160;AND </text>
</g>
<!-- rvg&#45;&gt;z01 -->
<g id="edge39" class="edge">
<title>rvg&#45;&gt;z01</title>
<path fill="none" stroke="black" d="M1462.56,-87.12C1459.6,-76.61 1454.51,-63.35 1446.17,-54 1437.5,-44.29 1425.48,-36.77 1414.13,-31.24"/>
<polygon fill="black" stroke="black" points="1415.4,-27.97 1404.85,-27.06 1412.53,-34.36 1415.4,-27.97"/>
<text text-anchor="middle" x="1478.17" y="-57.8" font-family="Times,serif" font-size="14.00"> &#160;XOR </text>
</g>
<!-- rvg&#45;&gt;z12 -->
<g id="edge40" class="edge">
<title>rvg&#45;&gt;z12</title>
<path fill="none" stroke="black" d="M1487.73,-94.1C1497.84,-88.29 1508.99,-79.92 1515.17,-69 1519.01,-62.23 1520.65,-54.09 1521.17,-46.36"/>
<polygon fill="black" stroke="black" points="1524.67,-46.29 1521.27,-36.25 1517.67,-46.22 1524.67,-46.29"/>
<text text-anchor="middle" x="1542.17" y="-57.8" font-family="Times,serif" font-size="14.00"> &#160;XOR </text>
</g>
<!-- gnj -->
<g id="node21" class="node">
<title>gnj</title>
<ellipse fill="none" stroke="black" cx="804.17" cy="-105" rx="27" ry="18"/>
<text text-anchor="middle" x="804.17" y="-101.3" font-family="Times,serif" font-size="14.00">gnj</text>
</g>
<!-- gnj&#45;&gt;z02 -->
<g id="edge20" class="edge">
<title>gnj&#45;&gt;z02</title>
<path fill="none" stroke="black" d="M790.61,-89.42C780.36,-78.87 765.63,-64.66 751.17,-54 741.42,-46.81 730.05,-40 719.73,-34.33"/>
<polygon fill="black" stroke="black" points="721.09,-31.09 710.62,-29.46 717.79,-37.26 721.09,-31.09"/>
<text text-anchor="middle" x="791.67" y="-57.8" font-family="Times,serif" font-size="14.00"> &#160;AND </text>
</g>
<!-- gnj&#45;&gt;z11 -->
<g id="edge21" class="edge">
<title>gnj&#45;&gt;z11</title>
<path fill="none" stroke="black" d="M828.95,-97.56C841.58,-94.32 857.17,-90.37 871.17,-87 906.18,-78.57 915.87,-79.97 950.17,-69 966.68,-63.72 969.84,-59.81 986.17,-54 1013.71,-44.21 1045.5,-34.89 1069.14,-28.33"/>
<polygon fill="black" stroke="black" points="1070.34,-31.63 1079.06,-25.61 1068.49,-24.88 1070.34,-31.63"/>
<text text-anchor="middle" x="1009.67" y="-57.8" font-family="Times,serif" font-size="14.00"> &#160;AND </text>
</g>
<!-- hwm -->
<g id="node24" class="node">
<title>hwm</title>
<ellipse fill="none" stroke="black" cx="913.17" cy="-105" rx="33.29" ry="18"/>
<text text-anchor="middle" x="913.17" y="-101.3" font-family="Times,serif" font-size="14.00">hwm</text>
</g>
<!-- hwm&#45;&gt;z03 -->
<g id="edge22" class="edge">
<title>hwm&#45;&gt;z03</title>
<path fill="none" stroke="black" d="M907.32,-87.09C903.47,-77.06 897.9,-64.33 891.17,-54 888.27,-49.54 884.79,-45.11 881.22,-40.97"/>
<polygon fill="black" stroke="black" points="883.67,-38.47 874.35,-33.44 878.5,-43.18 883.67,-38.47"/>
<text text-anchor="middle" x="922.67" y="-57.8" font-family="Times,serif" font-size="14.00"> &#160;AND </text>
</g>
<!-- kjc -->
<g id="node25" class="node">
<title>kjc</title>
<ellipse fill="none" stroke="black" cx="1537.17" cy="-192" rx="27" ry="18"/>
<text text-anchor="middle" x="1537.17" y="-188.3" font-family="Times,serif" font-size="14.00">kjc</text>
</g>
<!-- kjc&#45;&gt;rvg -->
<g id="edge24" class="edge">
<title>kjc&#45;&gt;rvg</title>
<path fill="none" stroke="black" d="M1511.51,-185.81C1495.18,-181.03 1475.27,-172.14 1465.17,-156 1460.95,-149.24 1459.88,-140.91 1460.25,-132.99"/>
<polygon fill="black" stroke="black" points="1463.73,-133.33 1461.42,-122.99 1456.78,-132.52 1463.73,-133.33"/>
<text text-anchor="middle" x="1488.67" y="-144.8" font-family="Times,serif" font-size="14.00"> &#160;AND </text>
</g>
<!-- kwq -->
<g id="node26" class="node">
<title>kwq</title>
<ellipse fill="none" stroke="black" cx="1568.17" cy="-105" rx="29.8" ry="18"/>
<text text-anchor="middle" x="1568.17" y="-101.3" font-family="Times,serif" font-size="14.00">kwq</text>
</g>
<!-- kjc&#45;&gt;kwq -->
<g id="edge23" class="edge">
<title>kjc&#45;&gt;kwq</title>
<path fill="none" stroke="black" d="M1554.68,-177.93C1561.14,-172.03 1567.73,-164.48 1571.17,-156 1574.09,-148.8 1574.61,-140.53 1574.04,-132.82"/>
<polygon fill="black" stroke="black" points="1577.5,-132.26 1572.73,-122.8 1570.56,-133.17 1577.5,-132.26"/>
<text text-anchor="middle" x="1591.17" y="-144.8" font-family="Times,serif" font-size="14.00"> &#160;OR </text>
</g>
<!-- kwq&#45;&gt;z05 -->
<g id="edge26" class="edge">
<title>kwq&#45;&gt;z05</title>
<path fill="none" stroke="black" d="M1578.71,-88.01C1587,-75.43 1598.69,-57.68 1608.14,-43.33"/>
<polygon fill="black" stroke="black" points="1611.11,-45.19 1613.69,-34.92 1605.26,-41.34 1611.11,-45.19"/>
<text text-anchor="middle" x="1617.17" y="-57.8" font-family="Times,serif" font-size="14.00"> &#160;OR </text>
</g>
<!-- nrd -->
<g id="node28" class="node">
<title>nrd</title>
<ellipse fill="none" stroke="black" cx="630.17" cy="-192" rx="27" ry="18"/>
<text text-anchor="middle" x="630.17" y="-188.3" font-family="Times,serif" font-size="14.00">nrd</text>
</g>
<!-- nrd&#45;&gt;bqk -->
<g id="edge28" class="edge">
<title>nrd&#45;&gt;bqk</title>
<path fill="none" stroke="black" d="M626.78,-174.05C625.58,-164.01 625.51,-151.28 630.17,-141 633.04,-134.68 637.68,-129.05 642.8,-124.25"/>
<polygon fill="black" stroke="black" points="645.06,-126.92 650.5,-117.83 640.57,-121.55 645.06,-126.92"/>
<text text-anchor="middle" x="648.17" y="-144.8" font-family="Times,serif" font-size="14.00"> &#160;OR </text>
</g>
<!-- nrd&#45;&gt;wpb -->
<g id="edge30" class="edge">
<title>nrd&#45;&gt;wpb</title>
<path fill="none" stroke="black" d="M609.59,-180.21C604.64,-177.92 599.29,-175.68 594.17,-174 554.59,-161 528.65,-188.17 502.17,-156 496.3,-148.87 497.59,-139.55 501.28,-130.89"/>
<polygon fill="black" stroke="black" points="504.46,-132.37 506.01,-121.89 498.26,-129.11 504.46,-132.37"/>
<text text-anchor="middle" x="525.17" y="-144.8" font-family="Times,serif" font-size="14.00"> &#160;XOR </text>
</g>
<!-- nrd&#45;&gt;hwm -->
<g id="edge29" class="edge">
<title>nrd&#45;&gt;hwm</title>
<path fill="none" stroke="black" d="M656.28,-186.77C680.94,-182.92 718.98,-177.34 752.17,-174 784.18,-170.78 1019.14,-179.45 1041.17,-156 1068.95,-126.44 1003.37,-114.09 956.19,-109.13"/>
<polygon fill="black" stroke="black" points="956.43,-105.64 946.14,-108.15 955.75,-112.6 956.43,-105.64"/>
<text text-anchor="middle" x="1070.67" y="-144.8" font-family="Times,serif" font-size="14.00"> &#160;AND </text>
</g>
<!-- ntg -->
<g id="node29" class="node">
<title>ntg</title>
<ellipse fill="none" stroke="black" cx="486.17" cy="-192" rx="27" ry="18"/>
<text text-anchor="middle" x="486.17" y="-188.3" font-family="Times,serif" font-size="14.00">ntg</text>
</g>
<!-- ntg&#45;&gt;mjb -->
<g id="edge32" class="edge">
<title>ntg&#45;&gt;mjb</title>
<path fill="none" stroke="black" d="M465.71,-179.83C460.75,-177.55 455.37,-175.42 450.17,-174 364.92,-150.78 334.25,-188.73 252.17,-156 242.18,-152.01 242.72,-145.97 233.17,-141 208.48,-128.15 199.83,-131.04 173.17,-123 166.44,-120.97 159.26,-118.79 152.36,-116.7"/>
<polygon fill="black" stroke="black" points="153.12,-113.27 142.54,-113.72 151.09,-119.97 153.12,-113.27"/>
<text text-anchor="middle" x="275.17" y="-144.8" font-family="Times,serif" font-size="14.00"> &#160;XOR </text>
</g>
<!-- ntg&#45;&gt;kwq -->
<g id="edge31" class="edge">
<title>ntg&#45;&gt;kwq</title>
<path fill="none" stroke="black" d="M506.21,-179.83C511.28,-177.49 516.81,-175.33 522.17,-174 608.75,-152.54 839.58,-187.14 923.17,-156 933.25,-152.24 932.07,-144.69 942.17,-141 1000.65,-119.64 1440.55,-131.82 1502.17,-123 1512.08,-121.58 1522.65,-119.24 1532.36,-116.75"/>
<polygon fill="black" stroke="black" points="1533.36,-120.11 1542.11,-114.13 1531.54,-113.35 1533.36,-120.11"/>
<text text-anchor="middle" x="960.17" y="-144.8" font-family="Times,serif" font-size="14.00"> &#160;OR </text>
</g>
<!-- pbm -->
<g id="node30" class="node">
<title>pbm</title>
<ellipse fill="none" stroke="black" cx="1195.17" cy="-192" rx="31.4" ry="18"/>
<text text-anchor="middle" x="1195.17" y="-188.3" font-family="Times,serif" font-size="14.00">pbm</text>
</g>
<!-- pbm&#45;&gt;kpj -->
<g id="edge34" class="edge">
<title>pbm&#45;&gt;kpj</title>
<path fill="none" stroke="black" d="M1223.62,-184.27C1245.16,-178.51 1275.05,-169.07 1299.17,-156 1308.63,-150.88 1308.12,-144.84 1318.17,-141 1378.27,-118.02 1544.85,-139.03 1607.17,-123 1609.35,-122.44 1611.55,-121.75 1613.74,-120.97"/>
<polygon fill="black" stroke="black" points="1615.2,-124.15 1623.12,-117.1 1612.54,-117.68 1615.2,-124.15"/>
<text text-anchor="middle" x="1336.17" y="-144.8" font-family="Times,serif" font-size="14.00"> &#160;OR </text>
</g>
<!-- pbm&#45;&gt;qhw -->
<g id="edge35" class="edge">
<title>pbm&#45;&gt;qhw</title>
<path fill="none" stroke="black" d="M1195.37,-173.8C1195.51,-162.16 1195.7,-146.55 1195.85,-133.24"/>
<polygon fill="black" stroke="black" points="1199.35,-133.22 1195.97,-123.18 1192.35,-133.13 1199.35,-133.22"/>
<text text-anchor="middle" x="1213.17" y="-144.8" font-family="Times,serif" font-size="14.00"> &#160;OR </text>
</g>
<!-- pbm&#45;&gt;gnj -->
<g id="edge33" class="edge">
<title>pbm&#45;&gt;gnj</title>
<path fill="none" stroke="black" d="M1163.9,-190C1124.37,-187.71 1055,-180.26 1001.17,-156 991.36,-151.58 992.02,-145.33 982.17,-141 936.43,-120.87 920.11,-133.16 871.17,-123 860.51,-120.79 848.99,-118.01 838.55,-115.34"/>
<polygon fill="black" stroke="black" points="839.12,-111.87 828.56,-112.73 837.35,-118.64 839.12,-111.87"/>
<text text-anchor="middle" x="1019.17" y="-144.8" font-family="Times,serif" font-size="14.00"> &#160;OR </text>
</g>
<!-- psh -->
<g id="node31" class="node">
<title>psh</title>
<ellipse fill="none" stroke="black" cx="1324.17" cy="-192" rx="27.1" ry="18"/>
<text text-anchor="middle" x="1324.17" y="-188.3" font-family="Times,serif" font-size="14.00">psh</text>
</g>
<!-- psh&#45;&gt;tgd -->
<g id="edge36" class="edge">
<title>psh&#45;&gt;tgd</title>
<path fill="none" stroke="black" d="M1342.24,-178.24C1353.87,-168.36 1365.55,-154.19 1358.17,-141 1352.76,-131.32 1343.45,-124 1333.91,-118.61"/>
<polygon fill="black" stroke="black" points="1335.32,-115.4 1324.81,-114.03 1332.17,-121.65 1335.32,-115.4"/>
<text text-anchor="middle" x="1383.17" y="-144.8" font-family="Times,serif" font-size="14.00"> &#160;XOR </text>
</g>
<!-- tnw -->
<g id="node35" class="node">
<title>tnw</title>
<ellipse fill="none" stroke="black" cx="412.17" cy="-192" rx="28.7" ry="18"/>
<text text-anchor="middle" x="412.17" y="-188.3" font-family="Times,serif" font-size="14.00">tnw</text>
</g>
<!-- tnw&#45;&gt;bfw -->
<g id="edge45" class="edge">
<title>tnw&#45;&gt;bfw</title>
<path fill="none" stroke="black" d="M387.6,-182.58C369.86,-176.14 345.53,-166.6 325.17,-156 314.35,-150.36 313.05,-146.53 302.17,-141 283.84,-131.67 262.41,-123.38 244.84,-117.21"/>
<polygon fill="black" stroke="black" points="245.59,-113.76 235,-113.83 243.32,-120.38 245.59,-113.76"/>
<text text-anchor="middle" x="343.17" y="-144.8" font-family="Times,serif" font-size="14.00"> &#160;OR </text>
</g>
<!-- tnw&#45;&gt;frj -->
<g id="edge46" class="edge">
<title>tnw&#45;&gt;frj</title>
<path fill="none" stroke="black" d="M418.1,-174.21C422.29,-162.33 428,-146.17 432.8,-132.56"/>
<polygon fill="black" stroke="black" points="436.23,-133.35 436.26,-122.76 429.63,-131.02 436.23,-133.35"/>
<text text-anchor="middle" x="446.17" y="-144.8" font-family="Times,serif" font-size="14.00"> &#160;OR </text>
</g>
<!-- tnw&#45;&gt;gnj -->
<g id="edge47" class="edge">
<title>tnw&#45;&gt;gnj</title>
<path fill="none" stroke="black" d="M433.4,-179.91C438.74,-177.56 444.56,-175.38 450.17,-174 511.78,-158.8 675.91,-178.69 735.17,-156 745.22,-152.15 745.54,-147.42 754.17,-141 761.63,-135.45 769.84,-129.6 777.42,-124.3"/>
<polygon fill="black" stroke="black" points="779.72,-126.97 785.94,-118.39 775.73,-121.22 779.72,-126.97"/>
<text text-anchor="middle" x="772.17" y="-144.8" font-family="Times,serif" font-size="14.00"> &#160;OR </text>
</g>
<!-- vdt -->
<g id="node36" class="node">
<title>vdt</title>
<ellipse fill="none" stroke="black" cx="558.17" cy="-192" rx="27" ry="18"/>
<text text-anchor="middle" x="558.17" y="-188.3" font-family="Times,serif" font-size="14.00">vdt</text>
</g>
<!-- vdt&#45;&gt;bfw -->
<g id="edge48" class="edge">
<title>vdt&#45;&gt;bfw</title>
<path fill="none" stroke="black" d="M537.66,-179.98C532.71,-177.69 527.34,-175.52 522.17,-174 463.25,-156.68 442.97,-176.75 385.17,-156 373.33,-151.75 372.79,-145.82 361.17,-141 323.99,-125.58 278.7,-116.23 247.48,-111.12"/>
<polygon fill="black" stroke="black" points="247.88,-107.64 237.46,-109.55 246.8,-114.56 247.88,-107.64"/>
<text text-anchor="middle" x="403.17" y="-144.8" font-family="Times,serif" font-size="14.00"> &#160;OR </text>
</g>
<!-- vdt&#45;&gt;hwm -->
<g id="edge49" class="edge">
<title>vdt&#45;&gt;hwm</title>
<path fill="none" stroke="black" d="M578.64,-179.82C583.6,-177.55 588.97,-175.41 594.17,-174 680.29,-150.58 711.26,-189.02 794.17,-156 804.17,-152.02 803.74,-146.18 813.17,-141 832.17,-130.56 854.86,-122.32 873.82,-116.46"/>
<polygon fill="black" stroke="black" points="875.06,-119.74 883.64,-113.53 873.06,-113.04 875.06,-119.74"/>
<text text-anchor="middle" x="836.67" y="-144.8" font-family="Times,serif" font-size="14.00"> &#160;AND </text>
</g>
<!-- x00 -->
<g id="node37" class="node">
<title>x00</title>
<ellipse fill="none" stroke="black" cx="666.17" cy="-279" rx="27.9" ry="18"/>
<text text-anchor="middle" x="666.17" y="-275.3" font-family="Times,serif" font-size="14.00">x00</text>
</g>
<!-- x00&#45;&gt;fst -->
<g id="edge51" class="edge">
<title>x00&#45;&gt;fst</title>
<path fill="none" stroke="black" d="M684.2,-264.91C698.28,-254.74 718.38,-240.34 736.17,-228 744.18,-222.44 752.96,-216.49 760.98,-211.1"/>
<polygon fill="black" stroke="black" points="762.95,-213.99 769.31,-205.51 759.06,-208.17 762.95,-213.99"/>
<text text-anchor="middle" x="754.17" y="-231.8" font-family="Times,serif" font-size="14.00"> &#160;OR </text>
</g>
<!-- x00&#45;&gt;ntg -->
<g id="edge52" class="edge">
<title>x00&#45;&gt;ntg</title>
<path fill="none" stroke="black" d="M661.69,-260.93C657.85,-249.78 651.15,-235.86 640.17,-228 597.04,-197.12 572.91,-225.49 522.17,-210 520.24,-209.41 518.28,-208.73 516.32,-208"/>
<polygon fill="black" stroke="black" points="517.28,-204.6 506.7,-203.94 514.56,-211.05 517.28,-204.6"/>
<text text-anchor="middle" x="676.17" y="-231.8" font-family="Times,serif" font-size="14.00"> &#160;XOR </text>
</g>
<!-- x00&#45;&gt;vdt -->
<g id="edge53" class="edge">
<title>x00&#45;&gt;vdt</title>
<path fill="none" stroke="black" d="M640.86,-271.12C607.84,-262.02 553.92,-246.71 551.17,-243 546.13,-236.19 545.89,-227.39 547.55,-219.08"/>
<polygon fill="black" stroke="black" points="550.95,-219.92 550.32,-209.35 544.22,-218.01 550.95,-219.92"/>
<text text-anchor="middle" x="569.17" y="-231.8" font-family="Times,serif" font-size="14.00"> &#160;OR </text>
</g>
<!-- x01 -->
<g id="node38" class="node">
<title>x01</title>
<ellipse fill="none" stroke="black" cx="562.17" cy="-279" rx="27.9" ry="18"/>
<text text-anchor="middle" x="562.17" y="-275.3" font-family="Times,serif" font-size="14.00">x01</text>
</g>
<!-- x01&#45;&gt;nrd -->
<g id="edge54" class="edge">
<title>x01&#45;&gt;nrd</title>
<path fill="none" stroke="black" d="M574.64,-262.41C584.97,-249.51 599.78,-230.99 611.51,-216.32"/>
<polygon fill="black" stroke="black" points="614.49,-218.2 618.01,-208.21 609.03,-213.83 614.49,-218.2"/>
<text text-anchor="middle" x="618.17" y="-231.8" font-family="Times,serif" font-size="14.00"> &#160;OR </text>
</g>
<!-- x01&#45;&gt;tnw -->
<g id="edge55" class="edge">
<title>x01&#45;&gt;tnw</title>
<path fill="none" stroke="black" d="M534.84,-275.15C497.22,-270.62 432.4,-260.47 417.17,-243 411.77,-236.8 409.67,-228.4 409.17,-220.24"/>
<polygon fill="black" stroke="black" points="412.67,-220.27 409.26,-210.24 405.67,-220.21 412.67,-220.27"/>
<text text-anchor="middle" x="435.17" y="-231.8" font-family="Times,serif" font-size="14.00"> &#160;OR </text>
</g>
<!-- x02 -->
<g id="node39" class="node">
<title>x02</title>
<ellipse fill="none" stroke="black" cx="1195.17" cy="-279" rx="27.9" ry="18"/>
<text text-anchor="middle" x="1195.17" y="-275.3" font-family="Times,serif" font-size="14.00">x02</text>
</g>
<!-- x02&#45;&gt;pbm -->
<g id="edge56" class="edge">
<title>x02&#45;&gt;pbm</title>
<path fill="none" stroke="black" d="M1195.17,-260.8C1195.17,-249.16 1195.17,-233.55 1195.17,-220.24"/>
<polygon fill="black" stroke="black" points="1198.67,-220.18 1195.17,-210.18 1191.67,-220.18 1198.67,-220.18"/>
<text text-anchor="middle" x="1218.67" y="-231.8" font-family="Times,serif" font-size="14.00"> &#160;AND </text>
</g>
<!-- x03 -->
<g id="node40" class="node">
<title>x03</title>
<ellipse fill="none" stroke="black" cx="853.17" cy="-279" rx="27.9" ry="18"/>
<text text-anchor="middle" x="853.17" y="-275.3" font-family="Times,serif" font-size="14.00">x03</text>
</g>
<!-- x03&#45;&gt;ffh -->
<g id="edge57" class="edge">
<title>x03&#45;&gt;ffh</title>
<path fill="none" stroke="black" d="M870.08,-264.59C876.95,-258.53 884.57,-250.95 890.17,-243 895.17,-235.91 899.4,-227.51 902.78,-219.64"/>
<polygon fill="black" stroke="black" points="906.13,-220.67 906.59,-210.09 899.63,-218.08 906.13,-220.67"/>
<text text-anchor="middle" x="921.17" y="-231.8" font-family="Times,serif" font-size="14.00"> &#160;XOR </text>
</g>
<!-- x03&#45;&gt;fst -->
<g id="edge58" class="edge">
<title>x03&#45;&gt;fst</title>
<path fill="none" stroke="black" d="M848.03,-261.18C844.37,-250.94 838.76,-237.96 831.17,-228 826.6,-222 820.8,-216.39 814.95,-211.5"/>
<polygon fill="black" stroke="black" points="817.08,-208.72 807.05,-205.3 812.75,-214.23 817.08,-208.72"/>
<text text-anchor="middle" x="857.17" y="-231.8" font-family="Times,serif" font-size="14.00"> &#160;OR </text>
</g>
<!-- x03&#45;&gt;vdt -->
<g id="edge59" class="edge">
<title>x03&#45;&gt;vdt</title>
<path fill="none" stroke="black" d="M832.03,-267.11C819.81,-260.57 804.31,-251.82 791.17,-243 782.24,-237 782.15,-232.04 772.17,-228 698.46,-198.17 670.79,-231.28 594.17,-210 592.22,-209.46 590.25,-208.82 588.29,-208.11"/>
<polygon fill="black" stroke="black" points="589.23,-204.71 578.65,-204.13 586.56,-211.18 589.23,-204.71"/>
<text text-anchor="middle" x="809.17" y="-231.8" font-family="Times,serif" font-size="14.00"> &#160;OR </text>
</g>
<!-- x04 -->
<g id="node41" class="node">
<title>x04</title>
<ellipse fill="none" stroke="black" cx="1593.17" cy="-279" rx="27.9" ry="18"/>
<text text-anchor="middle" x="1593.17" y="-275.3" font-family="Times,serif" font-size="14.00">x04</text>
</g>
<!-- x04&#45;&gt;kjc -->
<g id="edge60" class="edge">
<title>x04&#45;&gt;kjc</title>
<path fill="none" stroke="black" d="M1587.44,-261.02C1583.62,-250.96 1578.06,-238.23 1571.17,-228 1567.98,-223.26 1564.1,-218.58 1560.13,-214.27"/>
<polygon fill="black" stroke="black" points="1562.49,-211.67 1553,-206.96 1557.48,-216.56 1562.49,-211.67"/>
<text text-anchor="middle" x="1602.67" y="-231.8" font-family="Times,serif" font-size="14.00"> &#160;AND </text>
</g>
<!-- y00 -->
<g id="node42" class="node">
<title>y00</title>
<ellipse fill="none" stroke="black" cx="1453.17" cy="-279" rx="27.9" ry="18"/>
<text text-anchor="middle" x="1453.17" y="-275.3" font-family="Times,serif" font-size="14.00">y00</text>
</g>
<!-- y00&#45;&gt;djm -->
<g id="edge61" class="edge">
<title>y00&#45;&gt;djm</title>
<path fill="none" stroke="black" d="M1450.14,-260.8C1448.08,-249.16 1445.33,-233.55 1442.98,-220.24"/>
<polygon fill="black" stroke="black" points="1446.39,-219.41 1441.2,-210.18 1439.49,-220.63 1446.39,-219.41"/>
<text text-anchor="middle" x="1469.67" y="-231.8" font-family="Times,serif" font-size="14.00"> &#160;AND </text>
</g>
<!-- y00&#45;&gt;kjc -->
<g id="edge62" class="edge">
<title>y00&#45;&gt;kjc</title>
<path fill="none" stroke="black" d="M1471.49,-264.89C1479.71,-258.66 1489.29,-250.86 1497.17,-243 1505.2,-234.99 1513.18,-225.43 1519.88,-216.82"/>
<polygon fill="black" stroke="black" points="1522.84,-218.7 1526.1,-208.62 1517.27,-214.47 1522.84,-218.7"/>
<text text-anchor="middle" x="1533.67" y="-231.8" font-family="Times,serif" font-size="14.00"> &#160;AND </text>
</g>
<!-- y00&#45;&gt;psh -->
<g id="edge63" class="edge">
<title>y00&#45;&gt;psh</title>
<path fill="none" stroke="black" d="M1425.98,-274.39C1392.2,-269.3 1337.49,-258.81 1325.17,-243 1320.2,-236.62 1318.71,-228.26 1318.84,-220.21"/>
<polygon fill="black" stroke="black" points="1322.35,-220.27 1319.76,-209.99 1315.37,-219.63 1322.35,-220.27"/>
<text text-anchor="middle" x="1343.17" y="-231.8" font-family="Times,serif" font-size="14.00"> &#160;OR </text>
</g>
<!-- y01 -->
<g id="node43" class="node">
<title>y01</title>
<ellipse fill="none" stroke="black" cx="1121.17" cy="-279" rx="27.9" ry="18"/>
<text text-anchor="middle" x="1121.17" y="-275.3" font-family="Times,serif" font-size="14.00">y01</text>
</g>
<!-- y01&#45;&gt;pbm -->
<g id="edge64" class="edge">
<title>y01&#45;&gt;pbm</title>
<path fill="none" stroke="black" d="M1126.41,-260.96C1130.18,-250.64 1136.04,-237.64 1144.17,-228 1149.84,-221.27 1157.11,-215.26 1164.37,-210.21"/>
<polygon fill="black" stroke="black" points="1166.32,-213.11 1172.79,-204.72 1162.5,-207.25 1166.32,-213.11"/>
<text text-anchor="middle" x="1167.67" y="-231.8" font-family="Times,serif" font-size="14.00"> &#160;AND </text>
</g>
<!-- y02 -->
<g id="node44" class="node">
<title>y02</title>
<ellipse fill="none" stroke="black" cx="302.17" cy="-279" rx="27.9" ry="18"/>
<text text-anchor="middle" x="302.17" y="-275.3" font-family="Times,serif" font-size="14.00">y02</text>
</g>
<!-- y02&#45;&gt;fgs -->
<g id="edge65" class="edge">
<title>y02&#45;&gt;fgs</title>
<path fill="none" stroke="black" d="M277.93,-269.88C265.53,-264.37 251.53,-255.73 244.17,-243 240.23,-236.18 238.96,-227.91 238.96,-220.08"/>
<polygon fill="black" stroke="black" points="242.47,-220.05 239.61,-209.84 235.48,-219.6 242.47,-220.05"/>
<text text-anchor="middle" x="262.17" y="-231.8" font-family="Times,serif" font-size="14.00"> &#160;OR </text>
</g>
<!-- y02&#45;&gt;tnw -->
<g id="edge66" class="edge">
<title>y02&#45;&gt;tnw</title>
<path fill="none" stroke="black" d="M318.17,-264.04C330.09,-253.8 346.88,-239.69 362.17,-228 369.43,-222.45 377.48,-216.67 384.95,-211.44"/>
<polygon fill="black" stroke="black" points="387.15,-214.17 393.38,-205.6 383.17,-208.41 387.15,-214.17"/>
<text text-anchor="middle" x="380.17" y="-231.8" font-family="Times,serif" font-size="14.00"> &#160;OR </text>
</g>
<!-- y03 -->
<g id="node45" class="node">
<title>y03</title>
<ellipse fill="none" stroke="black" cx="1043.17" cy="-279" rx="27.9" ry="18"/>
<text text-anchor="middle" x="1043.17" y="-275.3" font-family="Times,serif" font-size="14.00">y03</text>
</g>
<!-- y03&#45;&gt;djm -->
<g id="edge67" class="edge">
<title>y03&#45;&gt;djm</title>
<path fill="none" stroke="black" d="M1064.86,-267.46C1070.97,-264.92 1077.72,-262.5 1084.17,-261 1204.32,-233 1244.08,-281.86 1361.17,-243 1380.52,-236.58 1399.76,-224.09 1414.16,-213.21"/>
<polygon fill="black" stroke="black" points="1416.33,-215.96 1422.05,-207.04 1412.02,-210.44 1416.33,-215.96"/>
<text text-anchor="middle" x="1413.67" y="-231.8" font-family="Times,serif" font-size="14.00"> &#160;AND </text>
</g>
<!-- y03&#45;&gt;ffh -->
<g id="edge68" class="edge">
<title>y03&#45;&gt;ffh</title>
<path fill="none" stroke="black" d="M1039.52,-261.03C1036.36,-250.21 1030.75,-236.63 1021.17,-228 1001.33,-210.12 972.27,-201.36 949.15,-197.08"/>
<polygon fill="black" stroke="black" points="949.43,-193.58 939,-195.41 948.3,-200.49 949.43,-193.58"/>
<text text-anchor="middle" x="1054.17" y="-231.8" font-family="Times,serif" font-size="14.00"> &#160;XOR </text>
</g>
<!-- y03&#45;&gt;nrd -->
<g id="edge69" class="edge">
<title>y03&#45;&gt;nrd</title>
<path fill="none" stroke="black" d="M1022.95,-266.15C999.84,-252.83 963.27,-232.47 948.17,-228 864.3,-203.15 839.07,-220.04 752.17,-210 723.3,-206.66 690.71,-202.08 666.47,-198.51"/>
<polygon fill="black" stroke="black" points="666.71,-195.01 656.31,-197 665.68,-201.93 666.71,-195.01"/>
<text text-anchor="middle" x="996.17" y="-231.8" font-family="Times,serif" font-size="14.00"> &#160;OR </text>
</g>
<!-- y03&#45;&gt;psh -->
<g id="edge70" class="edge">
<title>y03&#45;&gt;psh</title>
<path fill="none" stroke="black" d="M1064.91,-267.66C1071.02,-265.12 1077.76,-262.66 1084.17,-261 1153.03,-243.21 1175.96,-266.24 1243.17,-243 1263.28,-236.05 1283.65,-223.44 1298.93,-212.63"/>
<polygon fill="black" stroke="black" points="1301.28,-215.25 1307.3,-206.53 1297.16,-209.59 1301.28,-215.25"/>
<text text-anchor="middle" x="1291.17" y="-231.8" font-family="Times,serif" font-size="14.00"> &#160;OR </text>
</g>
<!-- y04 -->
<g id="node46" class="node">
<title>y04</title>
<ellipse fill="none" stroke="black" cx="398.17" cy="-279" rx="27.9" ry="18"/>
<text text-anchor="middle" x="398.17" y="-275.3" font-family="Times,serif" font-size="14.00">y04</text>
</g>
<!-- y04&#45;&gt;fgs -->
<g id="edge71" class="edge">
<title>y04&#45;&gt;fgs</title>
<path fill="none" stroke="black" d="M372.53,-271.16C352.79,-265.28 325.24,-255.75 303.17,-243 289.7,-235.22 276.25,-224.36 265.51,-214.76"/>
<polygon fill="black" stroke="black" points="267.6,-211.92 257.87,-207.73 262.86,-217.08 267.6,-211.92"/>
<text text-anchor="middle" x="321.17" y="-231.8" font-family="Times,serif" font-size="14.00"> &#160;OR </text>
</g>
<!-- y04&#45;&gt;ntg -->
<g id="edge72" class="edge">
<title>y04&#45;&gt;ntg</title>
<path fill="none" stroke="black" d="M420.77,-268.05C432.61,-262.03 446.78,-253.49 457.17,-243 464.05,-236.06 469.89,-227.16 474.48,-218.81"/>
<polygon fill="black" stroke="black" points="477.69,-220.23 479.14,-209.73 471.46,-217.03 477.69,-220.23"/>
<text text-anchor="middle" x="491.17" y="-231.8" font-family="Times,serif" font-size="14.00"> &#160;XOR </text>
</g>
</g>
</svg>
