<?xml version="1.0" encoding="UTF-8" standalone="no"?>
<!DOCTYPE svg PUBLIC "-//W3C//DTD SVG 1.1//EN"
 "http://www.w3.org/Graphics/SVG/1.1/DTD/svg11.dtd">
<!-- Generated by graphviz version 2.43.0 (0)
 -->
<!-- Title: %3 Pages: 1 -->
<svg width="436pt" height="131pt"
 viewBox="0.00 0.00 435.95 131.00" xmlns="http://www.w3.org/2000/svg" xmlns:xlink="http://www.w3.org/1999/xlink">
<g id="graph0" class="graph" transform="scale(1 1) rotate(0) translate(4 127)">
<title>%3</title>
<polygon fill="white" stroke="transparent" points="-4,4 -4,-127 431.95,-127 431.95,4 -4,4"/>
<!-- y02 -->
<g id="node1" class="node">
<title>y02</title>
<ellipse fill="none" stroke="black" cx="27.95" cy="-105" rx="27.9" ry="18"/>
<text text-anchor="middle" x="27.95" y="-101.3" font-family="Times,serif" font-size="14.00">y02</text>
</g>
<!-- z02 -->
<g id="node2" class="node">
<title>z02</title>
<ellipse fill="none" stroke="black" cx="64.95" cy="-18" rx="27.1" ry="18"/>
<text text-anchor="middle" x="64.95" y="-14.3" font-family="Times,serif" font-size="14.00">z02</text>
</g>
<!-- y02&#45;&gt;z02 -->
<g id="edge1" class="edge">
<title>y02&#45;&gt;z02</title>
<path fill="none" stroke="black" d="M32.34,-86.97C35.14,-77.13 39.14,-64.63 43.95,-54 45.5,-50.57 47.31,-47.06 49.21,-43.64"/>
<polygon fill="black" stroke="black" points="52.26,-45.35 54.31,-34.96 46.23,-41.81 52.26,-45.35"/>
<text text-anchor="middle" x="61.95" y="-57.8" font-family="Times,serif" font-size="14.00"> &#160;OR </text>
</g>
<!-- y01 -->
<g id="node3" class="node">
<title>y01</title>
<ellipse fill="none" stroke="black" cx="175.95" cy="-105" rx="27.9" ry="18"/>
<text text-anchor="middle" x="175.95" y="-101.3" font-family="Times,serif" font-size="14.00">y01</text>
</g>
<!-- z01 -->
<g id="node4" class="node">
<title>z01</title>
<ellipse fill="none" stroke="black" cx="212.95" cy="-18" rx="27.1" ry="18"/>
<text text-anchor="middle" x="212.95" y="-14.3" font-family="Times,serif" font-size="14.00">z01</text>
</g>
<!-- y01&#45;&gt;z01 -->
<g id="edge2" class="edge">
<title>y01&#45;&gt;z01</title>
<path fill="none" stroke="black" d="M175.51,-86.66C175.86,-76.71 177.36,-64.21 181.95,-54 184.1,-49.22 187.13,-44.62 190.48,-40.42"/>
<polygon fill="black" stroke="black" points="193.13,-42.7 197.12,-32.88 187.88,-38.07 193.13,-42.7"/>
<text text-anchor="middle" x="204.95" y="-57.8" font-family="Times,serif" font-size="14.00"> &#160;XOR </text>
</g>
<!-- y00 -->
<g id="node5" class="node">
<title>y00</title>
<ellipse fill="none" stroke="black" cx="323.95" cy="-105" rx="27.9" ry="18"/>
<text text-anchor="middle" x="323.95" y="-101.3" font-family="Times,serif" font-size="14.00">y00</text>
</g>
<!-- z00 -->
<g id="node6" class="node">
<title>z00</title>
<ellipse fill="none" stroke="black" cx="360.95" cy="-18" rx="27.1" ry="18"/>
<text text-anchor="middle" x="360.95" y="-14.3" font-family="Times,serif" font-size="14.00">z00</text>
</g>
<!-- y00&#45;&gt;z00 -->
<g id="edge3" class="edge">
<title>y00&#45;&gt;z00</title>
<path fill="none" stroke="black" d="M323.03,-86.65C323.14,-76.7 324.39,-64.2 328.95,-54 331.12,-49.14 334.23,-44.51 337.67,-40.3"/>
<polygon fill="black" stroke="black" points="340.39,-42.51 344.53,-32.76 335.21,-37.8 340.39,-42.51"/>
<text text-anchor="middle" x="352.45" y="-57.8" font-family="Times,serif" font-size="14.00"> &#160;AND </text>
</g>
<!-- x02 -->
<g id="node7" class="node">
<title>x02</title>
<ellipse fill="none" stroke="black" cx="101.95" cy="-105" rx="27.9" ry="18"/>
<text text-anchor="middle" x="101.95" y="-101.3" font-family="Times,serif" font-size="14.00">x02</text>
</g>
<!-- x02&#45;&gt;z02 -->
<g id="edge4" class="edge">
<title>x02&#45;&gt;z02</title>
<path fill="none" stroke="black" d="M94.64,-87.21C89.38,-75.14 82.2,-58.64 76.22,-44.89"/>
<polygon fill="black" stroke="black" points="79.32,-43.24 72.12,-35.47 72.9,-46.04 79.32,-43.24"/>
<text text-anchor="middle" x="103.95" y="-57.8" font-family="Times,serif" font-size="14.00"> &#160;OR </text>
</g>
<!-- x01 -->
<g id="node8" class="node">
<title>x01</title>
<ellipse fill="none" stroke="black" cx="249.95" cy="-105" rx="27.9" ry="18"/>
<text text-anchor="middle" x="249.95" y="-101.3" font-family="Times,serif" font-size="14.00">x01</text>
</g>
<!-- x01&#45;&gt;z01 -->
<g id="edge5" class="edge">
<title>x01&#45;&gt;z01</title>
<path fill="none" stroke="black" d="M242.64,-87.21C237.38,-75.14 230.2,-58.64 224.22,-44.89"/>
<polygon fill="black" stroke="black" points="227.32,-43.24 220.12,-35.47 220.9,-46.04 227.32,-43.24"/>
<text text-anchor="middle" x="255.95" y="-57.8" font-family="Times,serif" font-size="14.00"> &#160;XOR </text>
</g>
<!-- x00 -->
<g id="node9" class="node">
<title>x00</title>
<ellipse fill="none" stroke="black" cx="397.95" cy="-105" rx="27.9" ry="18"/>
<text text-anchor="middle" x="397.95" y="-101.3" font-family="Times,serif" font-size="14.00">x00</text>
</g>
<!-- x00&#45;&gt;z00 -->
<g id="edge6" class="edge">
<title>x00&#45;&gt;z00</title>
<path fill="none" stroke="black" d="M390.64,-87.21C385.38,-75.14 378.2,-58.64 372.22,-44.89"/>
<polygon fill="black" stroke="black" points="375.32,-43.24 368.12,-35.47 368.9,-46.04 375.32,-43.24"/>
<text text-anchor="middle" x="404.45" y="-57.8" font-family="Times,serif" font-size="14.00"> &#160;AND </text>
</g>
</g>
</svg>
